<mxfile host="Electron" agent="Mozilla/5.0 (Windows NT 10.0; Win64; x64) AppleWebKit/537.36 (KHTML, like Gecko) draw.io/26.1.1 Chrome/132.0.6834.210 Electron/34.3.3 Safari/537.36" version="26.1.1">
  <diagram name="Page-1" id="EtMnzcgHfZz5ty_XabEl">
    <mxGraphModel dx="3460" dy="2164" grid="0" gridSize="10" guides="1" tooltips="1" connect="1" arrows="1" fold="1" page="1" pageScale="1" pageWidth="850" pageHeight="1100" background="none" math="0" shadow="0">
      <root>
        <mxCell id="0" />
        <mxCell id="1" parent="0" />
        <mxCell id="YHvIKDCHk9b3rmXarJUf-3" value="" style="endArrow=classic;html=1;rounded=0;entryX=0.858;entryY=0.987;entryDx=0;entryDy=0;entryPerimeter=0;strokeColor=#FFF700;strokeWidth=7;fontStyle=1;fontSize=19;" parent="1" target="Np-ABr15ij-Jm8Wm-Wb1-22" edge="1">
          <mxGeometry width="50" height="50" relative="1" as="geometry">
            <mxPoint x="-1167" y="377" as="sourcePoint" />
            <mxPoint x="-982.952" y="706.9699999999998" as="targetPoint" />
            <Array as="points">
              <mxPoint x="-1165" y="703" />
            </Array>
          </mxGeometry>
        </mxCell>
        <mxCell id="Np-ABr15ij-Jm8Wm-Wb1-144" value="" style="endArrow=classic;html=1;rounded=0;entryX=1;entryY=0.5;entryDx=0;entryDy=0;strokeColor=#00FFFF;strokeWidth=5;fontSize=19;fontStyle=1" parent="1" target="Np-ABr15ij-Jm8Wm-Wb1-72" edge="1">
          <mxGeometry width="50" height="50" relative="1" as="geometry">
            <mxPoint x="87" y="-224" as="sourcePoint" />
            <mxPoint x="32" y="-114" as="targetPoint" />
          </mxGeometry>
        </mxCell>
        <mxCell id="Np-ABr15ij-Jm8Wm-Wb1-163" value="sel_A" style="edgeLabel;align=center;verticalAlign=middle;resizable=0;points=[];labelBackgroundColor=none;fontSize=19;fontStyle=1;container=0;" parent="Np-ABr15ij-Jm8Wm-Wb1-144" vertex="1" connectable="0">
          <mxGeometry x="0.0697" y="-6" relative="1" as="geometry">
            <mxPoint x="19" y="-2" as="offset" />
          </mxGeometry>
        </mxCell>
        <mxCell id="Np-ABr15ij-Jm8Wm-Wb1-145" value="" style="endArrow=classic;html=1;rounded=0;entryX=1;entryY=0.5;entryDx=0;entryDy=0;strokeColor=#330066;strokeWidth=5;fontSize=19;fontStyle=1" parent="1" target="Np-ABr15ij-Jm8Wm-Wb1-86" edge="1">
          <mxGeometry width="50" height="50" relative="1" as="geometry">
            <mxPoint x="87" y="22" as="sourcePoint" />
            <mxPoint x="32" y="-114" as="targetPoint" />
          </mxGeometry>
        </mxCell>
        <mxCell id="Np-ABr15ij-Jm8Wm-Wb1-165" value="sel_B" style="edgeLabel;align=center;verticalAlign=middle;resizable=0;points=[];fontSize=19;fontStyle=1;labelBackgroundColor=none;container=0;" parent="Np-ABr15ij-Jm8Wm-Wb1-145" vertex="1" connectable="0">
          <mxGeometry x="-0.1548" y="-1" relative="1" as="geometry">
            <mxPoint x="25" y="-1" as="offset" />
          </mxGeometry>
        </mxCell>
        <mxCell id="Np-ABr15ij-Jm8Wm-Wb1-14" value="+4" style="rounded=0;whiteSpace=wrap;html=1;fillColor=#FFCCCC;container=0;fontSize=19;fontStyle=1" parent="1" vertex="1">
          <mxGeometry x="-1249.3399209486165" y="-609.5696202531645" width="49.80237154150197" height="83.54430379746836" as="geometry" />
        </mxCell>
        <mxCell id="Np-ABr15ij-Jm8Wm-Wb1-15" value="" style="endArrow=classic;html=1;rounded=0;entryX=1;entryY=0.5;entryDx=0;entryDy=0;strokeColor=light-dark(#FF0000,#EDEDED);strokeWidth=5;fontSize=19;fontStyle=1" parent="1" target="Np-ABr15ij-Jm8Wm-Wb1-14" edge="1">
          <mxGeometry width="50" height="50" relative="1" as="geometry">
            <mxPoint x="-1075.0316205533597" y="-166.78481012658222" as="sourcePoint" />
            <mxPoint x="-1000.3280632411067" y="-233.62025316455697" as="targetPoint" />
            <Array as="points">
              <mxPoint x="-1075.0316205533597" y="-166.78481012658222" />
              <mxPoint x="-1075.0316205533597" y="-567.7974683544304" />
            </Array>
          </mxGeometry>
        </mxCell>
        <mxCell id="Np-ABr15ij-Jm8Wm-Wb1-8" value="" style="endArrow=classic;html=1;rounded=0;exitX=0;exitY=0.5;exitDx=0;exitDy=0;strokeColor=light-dark(#FF0000,#EDEDED);strokeWidth=5;fontSize=19;fontStyle=1" parent="1" source="Np-ABr15ij-Jm8Wm-Wb1-14" edge="1">
          <mxGeometry width="50" height="50" relative="1" as="geometry">
            <mxPoint x="-1448.5494071146245" y="-275.3924050632911" as="sourcePoint" />
            <mxPoint x="-1311" y="-275" as="targetPoint" />
            <Array as="points">
              <mxPoint x="-1373.8458498023715" y="-567.7974683544304" />
              <mxPoint x="-1373.8458498023715" y="-275.3924050632911" />
            </Array>
          </mxGeometry>
        </mxCell>
        <mxCell id="Np-ABr15ij-Jm8Wm-Wb1-149" value="pc_next" style="edgeLabel;align=center;verticalAlign=middle;resizable=0;points=[];labelBackgroundColor=none;fontStyle=1;fontSize=19;container=0;" parent="Np-ABr15ij-Jm8Wm-Wb1-8" vertex="1" connectable="0">
          <mxGeometry x="-0.7313" y="-1" relative="1" as="geometry">
            <mxPoint x="2" y="-15" as="offset" />
          </mxGeometry>
        </mxCell>
        <mxCell id="Np-ABr15ij-Jm8Wm-Wb1-17" value="" style="group;fillColor=default;container=0;fontSize=19;fontStyle=1" parent="1" vertex="1" connectable="0">
          <mxGeometry x="-944.300395256917" y="-275.3924050632911" width="174.3083003952569" height="459.49367088607596" as="geometry" />
        </mxCell>
        <mxCell id="Np-ABr15ij-Jm8Wm-Wb1-21" value="" style="group;fillColor=default;container=0;fontSize=19;fontStyle=1" parent="1" vertex="1" connectable="0">
          <mxGeometry x="-769.9920948616601" y="-693.1139240506329" width="174.3083003952569" height="1629.113924050633" as="geometry" />
        </mxCell>
        <mxCell id="Np-ABr15ij-Jm8Wm-Wb1-25" value="" style="endArrow=classic;html=1;rounded=0;entryX=0.077;entryY=0.917;entryDx=0;entryDy=0;entryPerimeter=0;strokeColor=light-dark(#FF0000,#EDEDED);strokeWidth=5;fontSize=19;fontStyle=1" parent="1" target="Np-ABr15ij-Jm8Wm-Wb1-22" edge="1">
          <mxGeometry width="50" height="50" relative="1" as="geometry">
            <mxPoint x="-1075.0316205533597" y="-567.7974683544304" as="sourcePoint" />
            <mxPoint x="-676.6126482213439" y="-567.7974683544304" as="targetPoint" />
          </mxGeometry>
        </mxCell>
        <mxCell id="Np-ABr15ij-Jm8Wm-Wb1-35" value="" style="endArrow=none;html=1;rounded=0;exitX=0.308;exitY=-0.033;exitDx=0;exitDy=0;exitPerimeter=0;strokeColor=light-dark(#eeff00, #ededed);strokeWidth=5;fontSize=19;fontStyle=1" parent="1" edge="1">
          <mxGeometry width="50" height="50" relative="1" as="geometry">
            <mxPoint x="-681.298577075099" y="-192.1968354430379" as="sourcePoint" />
            <mxPoint x="-653.47" y="-294.85" as="targetPoint" />
            <Array as="points">
              <mxPoint x="-653.47" y="-191.85000000000002" />
            </Array>
          </mxGeometry>
        </mxCell>
        <mxCell id="Np-ABr15ij-Jm8Wm-Wb1-36" value="&lt;span&gt;&lt;font&gt;decoder&lt;/font&gt;&lt;/span&gt;" style="rounded=0;whiteSpace=wrap;html=1;fillColor=#FFFFCC;container=0;fontSize=19;fontStyle=1" parent="1" vertex="1">
          <mxGeometry x="-402.699604743083" y="601.8227848101267" width="958.695652173913" height="250.63291139240508" as="geometry" />
        </mxCell>
        <mxCell id="Np-ABr15ij-Jm8Wm-Wb1-45" value="" style="endArrow=classic;html=1;rounded=0;strokeColor=#66CC00;strokeWidth=5;fontSize=19;fontStyle=1" parent="1" target="Np-ABr15ij-Jm8Wm-Wb1-48" edge="1">
          <mxGeometry width="50" height="50" relative="1" as="geometry">
            <mxPoint x="-240.84189723320173" y="-66.5316455696202" as="sourcePoint" />
            <mxPoint x="-191.03952569169974" y="-484.253164556962" as="targetPoint" />
            <Array as="points">
              <mxPoint x="-240.84189723320173" y="-379.82278481012656" />
            </Array>
          </mxGeometry>
        </mxCell>
        <mxCell id="Np-ABr15ij-Jm8Wm-Wb1-46" value="" style="endArrow=classic;html=1;rounded=0;entryX=0.319;entryY=0.554;entryDx=0;entryDy=0;exitX=0.042;exitY=0;exitDx=0;exitDy=0;exitPerimeter=0;strokeColor=light-dark(#fbff00, #ededed);strokeWidth=5;entryPerimeter=0;fontSize=19;fontStyle=1" parent="1" source="Np-ABr15ij-Jm8Wm-Wb1-27" target="Np-ABr15ij-Jm8Wm-Wb1-47" edge="1">
          <mxGeometry width="50" height="50" relative="1" as="geometry">
            <mxPoint x="-228.39130434782624" y="-317.1645569620253" as="sourcePoint" />
            <mxPoint x="-178.58893280632424" y="-358.9367088607595" as="targetPoint" />
          </mxGeometry>
        </mxCell>
        <mxCell id="Np-ABr15ij-Jm8Wm-Wb1-157" value="rdata1" style="edgeLabel;align=center;verticalAlign=middle;resizable=0;points=[];fontSize=19;fontStyle=1;labelBackgroundColor=none;container=0;" parent="Np-ABr15ij-Jm8Wm-Wb1-46" vertex="1" connectable="0">
          <mxGeometry x="-0.2827" y="-1" relative="1" as="geometry">
            <mxPoint x="-19" y="-12" as="offset" />
          </mxGeometry>
        </mxCell>
        <mxCell id="Np-ABr15ij-Jm8Wm-Wb1-66" value="" style="endArrow=classic;html=1;rounded=0;exitX=0.25;exitY=0;exitDx=0;exitDy=0;strokeColor=light-dark(#fbff00, #ededed);strokeWidth=5;fontSize=19;fontStyle=1" parent="1" source="Np-ABr15ij-Jm8Wm-Wb1-27" edge="1">
          <mxGeometry width="50" height="50" relative="1" as="geometry">
            <mxPoint x="-265.74308300395273" y="-191.84810126582283" as="sourcePoint" />
            <mxPoint x="-171" y="-192" as="targetPoint" />
          </mxGeometry>
        </mxCell>
        <mxCell id="Np-ABr15ij-Jm8Wm-Wb1-158" value="rdata2" style="edgeLabel;align=center;verticalAlign=middle;resizable=0;points=[];labelBackgroundColor=none;fontSize=19;fontStyle=1;container=0;" parent="Np-ABr15ij-Jm8Wm-Wb1-66" vertex="1" connectable="0">
          <mxGeometry x="-0.4777" y="2" relative="1" as="geometry">
            <mxPoint x="-4" y="-12" as="offset" />
          </mxGeometry>
        </mxCell>
        <mxCell id="Np-ABr15ij-Jm8Wm-Wb1-74" value="" style="endArrow=classic;html=1;rounded=0;exitX=0.5;exitY=0;exitDx=0;exitDy=0;strokeColor=#CCCC00;strokeWidth=5;fontSize=19;fontStyle=1" parent="1" source="Np-ABr15ij-Jm8Wm-Wb1-44" edge="1">
          <mxGeometry width="50" height="50" relative="1" as="geometry">
            <mxPoint x="-16.731225296442744" y="-338.0506329113924" as="sourcePoint" />
            <mxPoint x="69" y="-338" as="targetPoint" />
          </mxGeometry>
        </mxCell>
        <mxCell id="Np-ABr15ij-Jm8Wm-Wb1-161" value="data_1" style="edgeLabel;html=1;align=center;verticalAlign=middle;resizable=0;points=[];fontStyle=1;fontSize=19;container=0;" parent="Np-ABr15ij-Jm8Wm-Wb1-74" vertex="1" connectable="0">
          <mxGeometry x="-0.1585" y="1" relative="1" as="geometry">
            <mxPoint x="-3" y="-12" as="offset" />
          </mxGeometry>
        </mxCell>
        <mxCell id="Np-ABr15ij-Jm8Wm-Wb1-92" value="" style="endArrow=classic;html=1;rounded=0;exitX=0.436;exitY=-0.008;exitDx=0;exitDy=0;exitPerimeter=0;entryX=0.167;entryY=0.444;entryDx=0;entryDy=0;entryPerimeter=0;fontSize=19;strokeWidth=5;strokeColor=#B3B3B3;fontStyle=1" parent="1" source="Np-ABr15ij-Jm8Wm-Wb1-36" target="Np-ABr15ij-Jm8Wm-Wb1-88" edge="1">
          <mxGeometry width="50" height="50" relative="1" as="geometry">
            <mxPoint x="207.37944664031602" y="204.98734177215192" as="sourcePoint" />
            <mxPoint x="20.620553359683754" y="-87.41772151898738" as="targetPoint" />
            <Array as="points">
              <mxPoint x="20.620553359683754" y="-87.41772151898738" />
            </Array>
          </mxGeometry>
        </mxCell>
        <mxCell id="Np-ABr15ij-Jm8Wm-Wb1-174" value="immediate" style="edgeLabel;align=center;verticalAlign=middle;resizable=0;points=[];fontStyle=1;fontSize=19;rotation=270;labelBackgroundColor=none;container=0;" parent="Np-ABr15ij-Jm8Wm-Wb1-92" vertex="1" connectable="0">
          <mxGeometry x="-0.5645" y="1" relative="1" as="geometry">
            <mxPoint x="-17" as="offset" />
          </mxGeometry>
        </mxCell>
        <mxCell id="Np-ABr15ij-Jm8Wm-Wb1-73" value="" style="endArrow=classic;html=1;rounded=0;exitX=0.077;exitY=0.033;exitDx=0;exitDy=0;exitPerimeter=0;strokeColor=#FFF700;strokeWidth=5;fontSize=19;fontStyle=1" parent="1" source="Np-ABr15ij-Jm8Wm-Wb1-22" edge="1">
          <mxGeometry width="50" height="50" relative="1" as="geometry">
            <mxPoint x="-16.731225296442744" y="-437.25949367088606" as="sourcePoint" />
            <mxPoint x="79" y="-436" as="targetPoint" />
            <Array as="points">
              <mxPoint x="8.169960474308255" y="-567.7974683544304" />
              <mxPoint x="8.169960474308255" y="-436.2151898734177" />
            </Array>
          </mxGeometry>
        </mxCell>
        <mxCell id="Np-ABr15ij-Jm8Wm-Wb1-152" value="pc_execute" style="edgeLabel;html=1;align=center;verticalAlign=middle;resizable=0;points=[];fontStyle=1;fontSize=19;container=0;" parent="Np-ABr15ij-Jm8Wm-Wb1-73" vertex="1" connectable="0">
          <mxGeometry x="-0.8191" y="5" relative="1" as="geometry">
            <mxPoint y="-11" as="offset" />
          </mxGeometry>
        </mxCell>
        <mxCell id="Np-ABr15ij-Jm8Wm-Wb1-95" value="" style="endArrow=none;html=1;rounded=0;movable=1;resizable=1;rotatable=1;deletable=1;editable=1;locked=0;connectable=1;flowAnimation=0;shadow=0;fillColor=#fff2cc;strokeColor=#d6b656;strokeWidth=12;fontSize=19;fontStyle=1" parent="1" edge="1">
          <mxGeometry width="50" height="50" relative="1" as="geometry">
            <mxPoint x="257.181818181818" y="-463.36708860759495" as="sourcePoint" />
            <mxPoint x="257.181818181818" y="-463.36708860759495" as="targetPoint" />
            <Array as="points">
              <mxPoint x="406.588932806324" y="-296.27848101265823" />
              <mxPoint x="406.588932806324" y="-212.73417721518985" />
              <mxPoint x="257.181818181818" y="-45.64556962025313" />
              <mxPoint x="257.181818181818" y="-170.96202531645565" />
              <mxPoint x="319.4347826086955" y="-212.73417721518985" />
              <mxPoint x="319.4347826086955" y="-296.27848101265823" />
              <mxPoint x="257.181818181818" y="-338.0506329113924" />
            </Array>
          </mxGeometry>
        </mxCell>
        <mxCell id="Np-ABr15ij-Jm8Wm-Wb1-100" value="" style="endArrow=classic;html=1;rounded=0;entryX=0.089;entryY=1;entryDx=0;entryDy=0;entryPerimeter=0;strokeColor=#FFF700;strokeWidth=5;fontSize=19;fontStyle=1" parent="1" target="Np-ABr15ij-Jm8Wm-Wb1-97" edge="1">
          <mxGeometry width="50" height="50" relative="1" as="geometry">
            <mxPoint x="8.169960474308255" y="-567.7974683544304" as="sourcePoint" />
            <mxPoint x="33.07114624505925" y="-338.0506329113924" as="targetPoint" />
          </mxGeometry>
        </mxCell>
        <mxCell id="Np-ABr15ij-Jm8Wm-Wb1-101" value="" style="endArrow=classic;html=1;rounded=0;entryX=-0.003;entryY=0.43;entryDx=0;entryDy=0;entryPerimeter=0;strokeColor=light-dark(#fff700, #ededed);strokeWidth=5;fontSize=19;fontStyle=1" parent="1" target="Np-ABr15ij-Jm8Wm-Wb1-36" edge="1">
          <mxGeometry width="50" height="50" relative="1" as="geometry">
            <mxPoint x="-651" y="-192" as="sourcePoint" />
            <mxPoint x="33.07114624505925" y="142.3291139240506" as="targetPoint" />
            <Array as="points">
              <mxPoint x="-651" y="710" />
            </Array>
          </mxGeometry>
        </mxCell>
        <mxCell id="Np-ABr15ij-Jm8Wm-Wb1-179" value="instruction" style="edgeLabel;align=center;verticalAlign=middle;resizable=0;points=[];rotation=90;labelBackgroundColor=none;fontSize=19;fontStyle=1;container=0;" parent="Np-ABr15ij-Jm8Wm-Wb1-101" vertex="1" connectable="0">
          <mxGeometry x="-0.4355" y="-6" relative="1" as="geometry">
            <mxPoint as="offset" />
          </mxGeometry>
        </mxCell>
        <mxCell id="Np-ABr15ij-Jm8Wm-Wb1-102" value="" style="endArrow=classic;html=1;rounded=0;strokeColor=light-dark(#f8fc03, #ededed);strokeWidth=5;fontSize=19;fontStyle=1" parent="1" edge="1">
          <mxGeometry width="50" height="50" relative="1" as="geometry">
            <mxPoint x="-651" y="539" as="sourcePoint" />
            <mxPoint x="705.403162055336" y="539.1645569620252" as="targetPoint" />
          </mxGeometry>
        </mxCell>
        <mxCell id="Np-ABr15ij-Jm8Wm-Wb1-103" value="" style="endArrow=classic;html=1;rounded=0;entryX=0.393;entryY=0.971;entryDx=0;entryDy=0;entryPerimeter=0;exitX=0.908;exitY=0.001;exitDx=0;exitDy=0;exitPerimeter=0;strokeColor=#999900;strokeWidth=5;fontSize=19;fontStyle=1" parent="1" source="Np-ABr15ij-Jm8Wm-Wb1-36" target="Np-ABr15ij-Jm8Wm-Wb1-97" edge="1">
          <mxGeometry width="50" height="50" relative="1" as="geometry">
            <mxPoint x="468.8418972332015" y="595.5569620253166" as="sourcePoint" />
            <mxPoint x="381.687747035573" y="142.3291139240506" as="targetPoint" />
            <Array as="points">
              <mxPoint x="468.8418972332015" y="-66.5316455696202" />
            </Array>
          </mxGeometry>
        </mxCell>
        <mxCell id="Np-ABr15ij-Jm8Wm-Wb1-175" value="rd_wr_mem" style="edgeLabel;align=center;verticalAlign=middle;resizable=0;points=[];labelBackgroundColor=none;fontStyle=1;fontSize=19;container=0;" parent="Np-ABr15ij-Jm8Wm-Wb1-103" vertex="1" connectable="0">
          <mxGeometry x="0.735" relative="1" as="geometry">
            <mxPoint x="2" y="-19" as="offset" />
          </mxGeometry>
        </mxCell>
        <mxCell id="Np-ABr15ij-Jm8Wm-Wb1-104" value="" style="endArrow=classic;html=1;rounded=0;entryX=0.458;entryY=0.995;entryDx=0;entryDy=0;entryPerimeter=0;strokeColor=#999900;strokeWidth=5;exitX=0.935;exitY=0.017;exitDx=0;exitDy=0;exitPerimeter=0;fontSize=19;fontStyle=1" parent="1" source="Np-ABr15ij-Jm8Wm-Wb1-36" target="Np-ABr15ij-Jm8Wm-Wb1-97" edge="1">
          <mxGeometry width="50" height="50" relative="1" as="geometry">
            <mxPoint x="494" y="596" as="sourcePoint" />
            <mxPoint x="705.403162055336" y="121.44303797468353" as="targetPoint" />
            <Array as="points">
              <mxPoint x="493.7430830039525" y="42.07594936708858" />
            </Array>
          </mxGeometry>
        </mxCell>
        <mxCell id="Np-ABr15ij-Jm8Wm-Wb1-176" value="mem_wr" style="edgeLabel;align=center;verticalAlign=middle;resizable=0;points=[];labelBackgroundColor=none;fontSize=19;fontStyle=1;container=0;" parent="Np-ABr15ij-Jm8Wm-Wb1-104" vertex="1" connectable="0">
          <mxGeometry x="0.6603" y="4" relative="1" as="geometry">
            <mxPoint x="13" y="-12" as="offset" />
          </mxGeometry>
        </mxCell>
        <mxCell id="Np-ABr15ij-Jm8Wm-Wb1-109" value="" style="endArrow=classic;html=1;rounded=0;entryX=0.333;entryY=1.019;entryDx=0;entryDy=0;entryPerimeter=0;strokeColor=#FFF700;strokeWidth=5;fontSize=19;fontStyle=1" parent="1" target="Np-ABr15ij-Jm8Wm-Wb1-97" edge="1">
          <mxGeometry width="50" height="50" relative="1" as="geometry">
            <mxPoint x="-54.08300395256924" y="-150.07594936708858" as="sourcePoint" />
            <mxPoint x="705.403162055336" y="-45.64556962025313" as="targetPoint" />
            <Array as="points">
              <mxPoint x="-54.08300395256924" y="37.89873417721515" />
              <mxPoint x="443.9407114624505" y="37.89873417721515" />
              <mxPoint x="443.9407114624505" y="-164.69620253164555" />
            </Array>
          </mxGeometry>
        </mxCell>
        <mxCell id="Np-ABr15ij-Jm8Wm-Wb1-107" value="" style="endArrow=classic;html=1;rounded=0;strokeColor=#00FF00;strokeWidth=5;fontSize=19;fontStyle=1;entryX=0.296;entryY=0.933;entryDx=0;entryDy=0;entryPerimeter=0;" parent="1" edge="1" target="Np-ABr15ij-Jm8Wm-Wb1-106">
          <mxGeometry width="50" height="50" relative="1" as="geometry">
            <mxPoint x="986" y="-317" as="sourcePoint" />
            <mxPoint x="1091.371541501976" y="-317.1645569620253" as="targetPoint" />
          </mxGeometry>
        </mxCell>
        <mxCell id="Np-ABr15ij-Jm8Wm-Wb1-110" value="" style="endArrow=classic;html=1;rounded=0;exitX=0.324;exitY=0.043;exitDx=0;exitDy=0;exitPerimeter=0;entryX=0.75;entryY=1;entryDx=0;entryDy=0;strokeColor=#00FF00;strokeWidth=5;fontSize=19;fontStyle=1" parent="1" source="Np-ABr15ij-Jm8Wm-Wb1-97" target="Np-ABr15ij-Jm8Wm-Wb1-106" edge="1">
          <mxGeometry width="50" height="50" relative="1" as="geometry">
            <mxPoint x="941.96442687747" y="-129.18987341772151" as="sourcePoint" />
            <mxPoint x="1087.6363636363635" y="-141.7215189873417" as="targetPoint" />
            <Array as="points" />
          </mxGeometry>
        </mxCell>
        <mxCell id="Np-ABr15ij-Jm8Wm-Wb1-182" value="wdata_mem" style="edgeLabel;align=center;verticalAlign=middle;resizable=0;points=[];labelBackgroundColor=none;fontSize=19;fontStyle=1;container=0;" parent="Np-ABr15ij-Jm8Wm-Wb1-110" vertex="1" connectable="0">
          <mxGeometry x="-0.5929" y="2" relative="1" as="geometry">
            <mxPoint x="8" y="-11" as="offset" />
          </mxGeometry>
        </mxCell>
        <mxCell id="Np-ABr15ij-Jm8Wm-Wb1-111" value="" style="endArrow=classic;html=1;rounded=0;exitX=0.298;exitY=-0.029;exitDx=0;exitDy=0;exitPerimeter=0;strokeColor=#00FF00;strokeWidth=5;fontSize=19;fontStyle=1;entryX=0.599;entryY=0.987;entryDx=0;entryDy=0;entryPerimeter=0;" parent="1" source="Np-ABr15ij-Jm8Wm-Wb1-97" edge="1" target="Np-ABr15ij-Jm8Wm-Wb1-106">
          <mxGeometry width="50" height="50" relative="1" as="geometry">
            <mxPoint x="792.5573122529645" y="309.4177215189874" as="sourcePoint" />
            <mxPoint x="1091.371541501976" y="-66.5316455696202" as="targetPoint" />
            <Array as="points" />
          </mxGeometry>
        </mxCell>
        <mxCell id="Np-ABr15ij-Jm8Wm-Wb1-183" value="rd_wr_mem_mem" style="edgeLabel;align=center;verticalAlign=middle;resizable=0;points=[];fontSize=19;fontStyle=1;labelBackgroundColor=none;container=0;" parent="Np-ABr15ij-Jm8Wm-Wb1-111" vertex="1" connectable="0">
          <mxGeometry x="-0.6976" y="4" relative="1" as="geometry">
            <mxPoint x="30" y="-15" as="offset" />
          </mxGeometry>
        </mxCell>
        <mxCell id="Np-ABr15ij-Jm8Wm-Wb1-112" value="" style="endArrow=classic;html=1;rounded=0;exitX=0.428;exitY=0.001;exitDx=0;exitDy=0;exitPerimeter=0;strokeColor=#00FF00;strokeWidth=5;fontSize=19;fontStyle=1;entryX=0;entryY=0.25;entryDx=0;entryDy=0;" parent="1" source="Np-ABr15ij-Jm8Wm-Wb1-97" target="RnqCKuSm8W6_e2I5_OoQ-2" edge="1">
          <mxGeometry width="50" height="50" relative="1" as="geometry">
            <mxPoint x="468.8418972332015" y="37.89873417721515" as="sourcePoint" />
            <mxPoint x="1094" y="-12" as="targetPoint" />
            <Array as="points" />
          </mxGeometry>
        </mxCell>
        <mxCell id="Np-ABr15ij-Jm8Wm-Wb1-184" value="mem_wr_mem" style="edgeLabel;html=1;align=center;verticalAlign=middle;resizable=0;points=[];fontSize=19;fontStyle=1;container=0;" parent="Np-ABr15ij-Jm8Wm-Wb1-112" vertex="1" connectable="0">
          <mxGeometry x="-0.4705" y="2" relative="1" as="geometry">
            <mxPoint x="-9" y="-11" as="offset" />
          </mxGeometry>
        </mxCell>
        <mxCell id="Np-ABr15ij-Jm8Wm-Wb1-113" value="" style="endArrow=classic;html=1;rounded=0;entryX=1;entryY=0.5;entryDx=0;entryDy=0;strokeColor=light-dark(#00CC00,#EDEDED);strokeWidth=8;fontSize=19;fontStyle=1" parent="1" target="Np-ABr15ij-Jm8Wm-Wb1-36" edge="1">
          <mxGeometry width="50" height="50" relative="1" as="geometry">
            <mxPoint x="780.106719367589" y="539.1645569620252" as="sourcePoint" />
            <mxPoint x="842.359683794466" y="434.7341772151899" as="targetPoint" />
            <Array as="points">
              <mxPoint x="1041.569169960474" y="539.1645569620252" />
              <mxPoint x="1041.569169960474" y="727.1392405063291" />
            </Array>
          </mxGeometry>
        </mxCell>
        <mxCell id="Np-ABr15ij-Jm8Wm-Wb1-190" value="instruction_mem" style="edgeLabel;align=center;verticalAlign=middle;resizable=0;points=[];labelBackgroundColor=none;fontSize=19;fontStyle=1;container=0;" parent="Np-ABr15ij-Jm8Wm-Wb1-113" vertex="1" connectable="0">
          <mxGeometry x="-0.8491" y="2" relative="1" as="geometry">
            <mxPoint x="18" y="-11" as="offset" />
          </mxGeometry>
        </mxCell>
        <mxCell id="Np-ABr15ij-Jm8Wm-Wb1-119" value="" style="endArrow=classic;rounded=0;exitX=0.848;exitY=0.023;exitDx=0;exitDy=0;exitPerimeter=0;strokeColor=#00FF00;strokeWidth=5;labelBackgroundColor=none;fontSize=19;fontStyle=1" parent="1" source="Np-ABr15ij-Jm8Wm-Wb1-106" edge="1">
          <mxGeometry width="50" height="50" relative="1" as="geometry">
            <mxPoint x="1315.482213438735" y="-212.73417721518985" as="sourcePoint" />
            <mxPoint x="1426" y="-154" as="targetPoint" />
          </mxGeometry>
        </mxCell>
        <mxCell id="Np-ABr15ij-Jm8Wm-Wb1-188" value="rdata" style="edgeLabel;align=center;verticalAlign=middle;resizable=0;points=[];labelBackgroundColor=none;fontSize=19;fontStyle=1;container=0;" parent="Np-ABr15ij-Jm8Wm-Wb1-119" vertex="1" connectable="0">
          <mxGeometry x="-0.6336" y="3" relative="1" as="geometry">
            <mxPoint x="25" y="-12" as="offset" />
          </mxGeometry>
        </mxCell>
        <mxCell id="Np-ABr15ij-Jm8Wm-Wb1-126" value="+4" style="rounded=0;whiteSpace=wrap;html=1;fillColor=#CCFFCC;container=0;fontSize=19;fontStyle=1" parent="1" vertex="1">
          <mxGeometry x="1041.569169960474" y="-609.5696202531645" width="49.80237154150197" height="83.54430379746836" as="geometry" />
        </mxCell>
        <mxCell id="Np-ABr15ij-Jm8Wm-Wb1-127" value="" style="endArrow=classic;html=1;rounded=0;entryX=0;entryY=0.5;entryDx=0;entryDy=0;exitX=0.089;exitY=0;exitDx=0;exitDy=0;exitPerimeter=0;strokeColor=#00FF00;strokeWidth=5;fontSize=19;fontStyle=1" parent="1" source="Np-ABr15ij-Jm8Wm-Wb1-97" target="Np-ABr15ij-Jm8Wm-Wb1-126" edge="1">
          <mxGeometry width="50" height="50" relative="1" as="geometry">
            <mxPoint x="456.391304347826" y="-24.75949367088606" as="sourcePoint" />
            <mxPoint x="518.6442687747035" y="-129.18987341772151" as="targetPoint" />
          </mxGeometry>
        </mxCell>
        <mxCell id="Np-ABr15ij-Jm8Wm-Wb1-180" value="pc_mem" style="edgeLabel;align=center;verticalAlign=middle;resizable=0;points=[];fontSize=19;fontStyle=1;labelBackgroundColor=none;container=0;" parent="Np-ABr15ij-Jm8Wm-Wb1-127" vertex="1" connectable="0">
          <mxGeometry x="-0.2562" y="3" relative="1" as="geometry">
            <mxPoint x="-28" y="-14" as="offset" />
          </mxGeometry>
        </mxCell>
        <mxCell id="Np-ABr15ij-Jm8Wm-Wb1-128" value="" style="endArrow=classic;html=1;rounded=0;exitX=0.971;exitY=-0.011;exitDx=0;exitDy=0;exitPerimeter=0;entryX=0.646;entryY=1;entryDx=0;entryDy=0;entryPerimeter=0;strokeColor=#999900;strokeWidth=5;fontSize=19;fontStyle=1" parent="1" source="Np-ABr15ij-Jm8Wm-Wb1-36" target="Np-ABr15ij-Jm8Wm-Wb1-97" edge="1">
          <mxGeometry width="50" height="50" relative="1" as="geometry">
            <mxPoint x="805.00790513834" y="17.01265822784808" as="sourcePoint" />
            <mxPoint x="867.260869565217" y="-87.41772151898738" as="targetPoint" />
            <Array as="points">
              <mxPoint x="528.6047430830038" y="351.1898734177216" />
            </Array>
          </mxGeometry>
        </mxCell>
        <mxCell id="Np-ABr15ij-Jm8Wm-Wb1-178" value="wb_sel" style="edgeLabel;align=center;verticalAlign=middle;resizable=0;points=[];labelBackgroundColor=none;fontSize=19;fontStyle=1;container=0;" parent="Np-ABr15ij-Jm8Wm-Wb1-128" vertex="1" connectable="0">
          <mxGeometry x="0.6558" y="6" relative="1" as="geometry">
            <mxPoint x="-23" y="-10" as="offset" />
          </mxGeometry>
        </mxCell>
        <mxCell id="Np-ABr15ij-Jm8Wm-Wb1-129" value="" style="endArrow=classic;html=1;rounded=0;exitX=0.642;exitY=-0.029;exitDx=0;exitDy=0;exitPerimeter=0;entryX=1;entryY=0.5;entryDx=0;entryDy=0;strokeColor=#00FF00;strokeWidth=5;fontSize=19;fontStyle=1" parent="1" source="Np-ABr15ij-Jm8Wm-Wb1-97" target="Np-ABr15ij-Jm8Wm-Wb1-117" edge="1">
          <mxGeometry width="50" height="50" relative="1" as="geometry">
            <mxPoint x="805.00790513834" y="17.01265822784808" as="sourcePoint" />
            <mxPoint x="867.260869565217" y="-87.41772151898738" as="targetPoint" />
            <Array as="points">
              <mxPoint x="1576" y="345" />
            </Array>
          </mxGeometry>
        </mxCell>
        <mxCell id="Np-ABr15ij-Jm8Wm-Wb1-191" value="wb_sel_mem" style="edgeLabel;align=center;verticalAlign=middle;resizable=0;points=[];fontSize=19;labelBackgroundColor=none;fontStyle=1;container=0;" parent="Np-ABr15ij-Jm8Wm-Wb1-129" vertex="1" connectable="0">
          <mxGeometry x="-0.907" y="3" relative="1" as="geometry">
            <mxPoint x="12" y="-16" as="offset" />
          </mxGeometry>
        </mxCell>
        <mxCell id="Np-ABr15ij-Jm8Wm-Wb1-130" value="" style="endArrow=classic;html=1;rounded=0;exitX=0.872;exitY=0.028;exitDx=0;exitDy=0;exitPerimeter=0;entryX=0.519;entryY=0.944;entryDx=0;entryDy=0;entryPerimeter=0;strokeColor=#999900;strokeWidth=5;fontSize=19;fontStyle=1" parent="1" source="Np-ABr15ij-Jm8Wm-Wb1-36" target="Np-ABr15ij-Jm8Wm-Wb1-97" edge="1">
          <mxGeometry width="50" height="50" relative="1" as="geometry">
            <mxPoint x="-390.2490118577075" y="37.89873417721515" as="sourcePoint" />
            <mxPoint x="-327.99604743083" y="-66.5316455696202" as="targetPoint" />
            <Array as="points">
              <mxPoint x="431.490118577075" y="142.3291139240506" />
            </Array>
          </mxGeometry>
        </mxCell>
        <mxCell id="Np-ABr15ij-Jm8Wm-Wb1-177" value="reg_wr" style="edgeLabel;align=center;verticalAlign=middle;resizable=0;points=[];labelBackgroundColor=none;fontSize=19;fontStyle=1;container=0;" parent="Np-ABr15ij-Jm8Wm-Wb1-130" vertex="1" connectable="0">
          <mxGeometry x="0.6895" y="1" relative="1" as="geometry">
            <mxPoint x="-4" y="-17" as="offset" />
          </mxGeometry>
        </mxCell>
        <mxCell id="Np-ABr15ij-Jm8Wm-Wb1-131" value="&lt;span&gt;&lt;font&gt;branch condition&lt;/font&gt;&lt;/span&gt;" style="rounded=0;whiteSpace=wrap;html=1;fillColor=#FFFFCC;container=0;fontSize=19;fontStyle=1" parent="1" vertex="1">
          <mxGeometry x="138.90118577075077" y="58.78481012658233" width="149.4071146245059" height="125.31645569620254" as="geometry" />
        </mxCell>
        <mxCell id="Np-ABr15ij-Jm8Wm-Wb1-132" value="" style="endArrow=classic;html=1;rounded=0;entryX=0;entryY=0.75;entryDx=0;entryDy=0;strokeColor=#FFF700;strokeWidth=5;fontSize=19;fontStyle=1" parent="1" target="Np-ABr15ij-Jm8Wm-Wb1-131" edge="1">
          <mxGeometry width="50" height="50" relative="1" as="geometry">
            <mxPoint x="-54.08300395256924" y="37.89873417721515" as="sourcePoint" />
            <mxPoint x="331.885375494071" y="-66.5316455696202" as="targetPoint" />
            <Array as="points">
              <mxPoint x="-54.08300395256924" y="152.77215189873414" />
            </Array>
          </mxGeometry>
        </mxCell>
        <mxCell id="Np-ABr15ij-Jm8Wm-Wb1-133" value="" style="endArrow=classic;html=1;rounded=0;entryX=0;entryY=0.25;entryDx=0;entryDy=0;strokeColor=#CCCC00;strokeWidth=5;fontSize=19;fontStyle=1" parent="1" target="Np-ABr15ij-Jm8Wm-Wb1-131" edge="1">
          <mxGeometry width="50" height="50" relative="1" as="geometry">
            <mxPoint x="-16.731225296442744" y="-338.0506329113924" as="sourcePoint" />
            <mxPoint x="331.885375494071" y="-66.5316455696202" as="targetPoint" />
            <Array as="points">
              <mxPoint x="-16.731225296442744" y="90.11392405063293" />
            </Array>
          </mxGeometry>
        </mxCell>
        <mxCell id="Np-ABr15ij-Jm8Wm-Wb1-134" value="" style="endArrow=classic;html=1;rounded=0;entryX=0.389;entryY=0.944;entryDx=0;entryDy=0;entryPerimeter=0;strokeColor=#FF8000;strokeWidth=5;fontSize=19;fontStyle=1" parent="1" target="Np-ABr15ij-Jm8Wm-Wb1-131" edge="1">
          <mxGeometry width="50" height="50" relative="1" as="geometry">
            <mxPoint x="194.92885375494052" y="309.4177215189874" as="sourcePoint" />
            <mxPoint x="742.7549407114625" y="-66.5316455696202" as="targetPoint" />
          </mxGeometry>
        </mxCell>
        <mxCell id="Np-ABr15ij-Jm8Wm-Wb1-171" value="br_type" style="edgeLabel;align=center;verticalAlign=middle;resizable=0;points=[];fontStyle=1;fontSize=19;labelBackgroundColor=none;container=0;" parent="Np-ABr15ij-Jm8Wm-Wb1-134" vertex="1" connectable="0">
          <mxGeometry x="-0.0416" relative="1" as="geometry">
            <mxPoint x="46" as="offset" />
          </mxGeometry>
        </mxCell>
        <mxCell id="Np-ABr15ij-Jm8Wm-Wb1-135" value="" style="endArrow=classic;html=1;rounded=0;entryX=1;entryY=0.5;entryDx=0;entryDy=0;exitX=1;exitY=0.5;exitDx=0;exitDy=0;strokeColor=#FFF700;strokeWidth=7;fontSize=19;fontStyle=1" parent="1" source="Np-ABr15ij-Jm8Wm-Wb1-131" target="Np-ABr15ij-Jm8Wm-Wb1-7" edge="1">
          <mxGeometry width="50" height="50" relative="1" as="geometry">
            <mxPoint x="680.501976284585" y="37.89873417721515" as="sourcePoint" />
            <mxPoint x="742.7549407114625" y="-66.5316455696202" as="targetPoint" />
            <Array as="points">
              <mxPoint x="344.3359683794465" y="121.44303797468353" />
              <mxPoint x="344.3359683794465" y="372.0759493670887" />
              <mxPoint x="-1292.9169960474308" y="372.0759493670887" />
            </Array>
          </mxGeometry>
        </mxCell>
        <mxCell id="Np-ABr15ij-Jm8Wm-Wb1-172" value="br_taken" style="edgeLabel;align=center;verticalAlign=middle;resizable=0;points=[];fontStyle=1;fontSize=19;labelBackgroundColor=none;container=0;" parent="Np-ABr15ij-Jm8Wm-Wb1-135" vertex="1" connectable="0">
          <mxGeometry x="-0.9759" y="4" relative="1" as="geometry">
            <mxPoint x="12" y="-9" as="offset" />
          </mxGeometry>
        </mxCell>
        <mxCell id="Np-ABr15ij-Jm8Wm-Wb1-1" value="" style="rounded=0;whiteSpace=wrap;html=1;direction=south;fillColor=#FFCCCC;container=0;fontSize=19;fontStyle=1" parent="1" vertex="1">
          <mxGeometry x="-1174.6363636363637" y="-275.3924050632911" width="74.70355731225295" height="250.63291139240508" as="geometry" />
        </mxCell>
        <mxCell id="Np-ABr15ij-Jm8Wm-Wb1-2" value="" style="endArrow=classic;html=1;rounded=0;strokeColor=light-dark(#FF0000,#EDEDED);strokeWidth=5;fontSize=19;fontStyle=1" parent="1" edge="1">
          <mxGeometry width="50" height="50" relative="1" as="geometry">
            <mxPoint x="-1274.2411067193675" y="-212.73417721518985" as="sourcePoint" />
            <mxPoint x="-1174.6363636363637" y="-212.73417721518985" as="targetPoint" />
          </mxGeometry>
        </mxCell>
        <mxCell id="Np-ABr15ij-Jm8Wm-Wb1-147" value="pc _in" style="edgeLabel;align=center;verticalAlign=middle;resizable=0;points=[];labelBackgroundColor=none;fontSize=19;fontStyle=1;container=0;" parent="Np-ABr15ij-Jm8Wm-Wb1-2" vertex="1" connectable="0">
          <mxGeometry x="-0.0113" y="4" relative="1" as="geometry">
            <mxPoint x="-16" y="-17" as="offset" />
          </mxGeometry>
        </mxCell>
        <mxCell id="Np-ABr15ij-Jm8Wm-Wb1-3" value="" style="triangle;whiteSpace=wrap;html=1;fillColor=none;container=0;fontSize=19;fontStyle=1" parent="1" vertex="1">
          <mxGeometry x="-1174.6363636363637" y="-87.41772151898738" width="24.901185770750985" height="62.65822784810127" as="geometry" />
        </mxCell>
        <mxCell id="Np-ABr15ij-Jm8Wm-Wb1-7" value="" style="shape=trapezoid;perimeter=trapezoidPerimeter;whiteSpace=wrap;html=1;fixedSize=1;direction=south;fillColor=#FFCCCC;container=0;fontSize=19;fontStyle=1" parent="1" vertex="1">
          <mxGeometry x="-1311.592885375494" y="-338.0506329113924" width="37.35177865612648" height="250.63291139240508" as="geometry" />
        </mxCell>
        <mxCell id="Np-ABr15ij-Jm8Wm-Wb1-9" value="" style="endArrow=classic;html=1;rounded=0;strokeColor=#FFFF00;strokeWidth=7;fontSize=19;fontStyle=1" parent="1" edge="1">
          <mxGeometry width="50" height="50" relative="1" as="geometry">
            <mxPoint x="572.5968379446638" y="-254.50632911392404" as="sourcePoint" />
            <mxPoint x="-1321" y="-150" as="targetPoint" />
            <Array as="points">
              <mxPoint x="572.181818181818" y="-714" />
              <mxPoint x="-1461" y="-714" />
              <mxPoint x="-1461" y="-150.07594936708858" />
            </Array>
          </mxGeometry>
        </mxCell>
        <mxCell id="Np-ABr15ij-Jm8Wm-Wb1-10" value="0" style="text;html=1;align=center;verticalAlign=middle;whiteSpace=wrap;rounded=0;container=0;fontSize=19;fontStyle=1" parent="1" vertex="1">
          <mxGeometry x="-1330.2687747035573" y="-296.27848101265823" width="74.70355731225295" height="62.65822784810127" as="geometry" />
        </mxCell>
        <mxCell id="Np-ABr15ij-Jm8Wm-Wb1-11" value="1" style="text;html=1;align=center;verticalAlign=middle;whiteSpace=wrap;rounded=0;container=0;fontSize=19;fontStyle=1" parent="1" vertex="1">
          <mxGeometry x="-1330.2687747035573" y="-191.84810126582283" width="74.70355731225295" height="62.65822784810127" as="geometry" />
        </mxCell>
        <mxCell id="Np-ABr15ij-Jm8Wm-Wb1-18" value="" style="rounded=0;whiteSpace=wrap;html=1;direction=south;fillColor=#FFCCCC;container=0;fontSize=19;fontStyle=1" parent="1" vertex="1">
          <mxGeometry x="-935.9956521739131" y="-285.8324050632911" width="74.70355731225295" height="459.49367088607596" as="geometry" />
        </mxCell>
        <mxCell id="Np-ABr15ij-Jm8Wm-Wb1-19" value="" style="endArrow=classic;html=1;rounded=0;exitX=0.45;exitY=0.067;exitDx=0;exitDy=0;exitPerimeter=0;strokeColor=light-dark(#FF0000,#EDEDED);strokeWidth=5;fontSize=19;fontStyle=1" parent="1" source="Np-ABr15ij-Jm8Wm-Wb1-1" edge="1">
          <mxGeometry width="50" height="50" relative="1" as="geometry">
            <mxPoint x="-944.300395256917" y="-160.51898734177212" as="sourcePoint" />
            <mxPoint x="-936" y="-161" as="targetPoint" />
          </mxGeometry>
        </mxCell>
        <mxCell id="Np-ABr15ij-Jm8Wm-Wb1-148" value="pc" style="edgeLabel;align=center;verticalAlign=middle;resizable=0;points=[];labelBackgroundColor=none;fontSize=19;fontStyle=1;container=0;" parent="Np-ABr15ij-Jm8Wm-Wb1-19" vertex="1" connectable="0">
          <mxGeometry x="-0.4318" y="1" relative="1" as="geometry">
            <mxPoint y="-18" as="offset" />
          </mxGeometry>
        </mxCell>
        <mxCell id="Np-ABr15ij-Jm8Wm-Wb1-20" value="" style="triangle;whiteSpace=wrap;html=1;fillColor=#FFCCCC;container=0;fontSize=19;fontStyle=1" parent="1" vertex="1">
          <mxGeometry x="-935.9956521739131" y="111.00303797468348" width="24.901185770750985" height="62.65822784810127" as="geometry" />
        </mxCell>
        <mxCell id="Np-ABr15ij-Jm8Wm-Wb1-22" value="" style="rounded=0;whiteSpace=wrap;html=1;direction=south;fillColor=#FFFF00;fillStyle=dots;container=0;fontSize=19;fontStyle=1" parent="1" vertex="1">
          <mxGeometry x="-755.9973517786561" y="-693.1139240506329" width="74.70355731225295" height="1629.113924050633" as="geometry" />
        </mxCell>
        <mxCell id="Np-ABr15ij-Jm8Wm-Wb1-23" value="" style="endArrow=classic;html=1;rounded=0;strokeColor=light-dark(#FF0000,#EDEDED);strokeWidth=5;entryX=0.324;entryY=0.994;entryDx=0;entryDy=0;entryPerimeter=0;fontSize=19;fontStyle=1" parent="1" target="Np-ABr15ij-Jm8Wm-Wb1-22" edge="1">
          <mxGeometry width="50" height="50" relative="1" as="geometry">
            <mxPoint x="-861.0020948616601" y="-163.9981012658228" as="sourcePoint" />
            <mxPoint x="-761.3973517786561" y="-163.9981012658228" as="targetPoint" />
          </mxGeometry>
        </mxCell>
        <mxCell id="Np-ABr15ij-Jm8Wm-Wb1-150" value="inst" style="edgeLabel;html=1;align=center;verticalAlign=middle;resizable=0;points=[];fontStyle=1;fontSize=19;container=0;" parent="Np-ABr15ij-Jm8Wm-Wb1-23" vertex="1" connectable="0">
          <mxGeometry x="-0.0423" y="3" relative="1" as="geometry">
            <mxPoint x="-1" y="-11" as="offset" />
          </mxGeometry>
        </mxCell>
        <mxCell id="Np-ABr15ij-Jm8Wm-Wb1-24" value="" style="triangle;whiteSpace=wrap;html=1;fillColor=none;container=0;fontSize=19;fontStyle=1" parent="1" vertex="1">
          <mxGeometry x="-755.9973517786561" y="831.5696202531647" width="24.901185770750985" height="104.43037974683544" as="geometry" />
        </mxCell>
        <mxCell id="Np-ABr15ij-Jm8Wm-Wb1-27" value="" style="rounded=0;whiteSpace=wrap;html=1;direction=south;container=0;fillColor=#FFFFCC;fontSize=19;fontStyle=1" parent="1" vertex="1">
          <mxGeometry x="-402.699604743083" y="-317.1645569620253" width="74.70355731225295" height="501.26582278481015" as="geometry" />
        </mxCell>
        <mxCell id="Np-ABr15ij-Jm8Wm-Wb1-28" value="" style="endArrow=classic;html=1;rounded=0;strokeColor=light-dark(#fbff00, #ededed);strokeWidth=5;fontSize=19;fontStyle=1" parent="1" edge="1">
          <mxGeometry width="50" height="50" relative="1" as="geometry">
            <mxPoint x="-661" y="-194" as="sourcePoint" />
            <mxPoint x="-402.699604743083" y="-191.85838843755903" as="targetPoint" />
          </mxGeometry>
        </mxCell>
        <mxCell id="Np-ABr15ij-Jm8Wm-Wb1-153" value="raddr2=instruction [24:20]" style="edgeLabel;align=center;verticalAlign=middle;resizable=0;points=[];labelBackgroundColor=none;fontSize=19;fontStyle=1;container=0;" parent="Np-ABr15ij-Jm8Wm-Wb1-28" vertex="1" connectable="0">
          <mxGeometry x="-0.2288" y="5" relative="1" as="geometry">
            <mxPoint x="30" y="-8" as="offset" />
          </mxGeometry>
        </mxCell>
        <mxCell id="Np-ABr15ij-Jm8Wm-Wb1-29" value="" style="triangle;whiteSpace=wrap;html=1;container=0;fillColor=none;fontSize=19;fontStyle=1" parent="1" vertex="1">
          <mxGeometry x="-402.699604743083" y="123.94936708860757" width="24.901185770750985" height="60.15189873417722" as="geometry" />
        </mxCell>
        <mxCell id="Np-ABr15ij-Jm8Wm-Wb1-31" value="" style="endArrow=classic;html=1;rounded=0;labelBackgroundColor=none;strokeColor=#66CC00;strokeWidth=8;fontSize=19;fontStyle=1" parent="1" edge="1">
          <mxGeometry width="50" height="50" relative="1" as="geometry">
            <mxPoint x="1594" y="-311" as="sourcePoint" />
            <mxPoint x="-402.699604743083" y="-3.8746646514263148" as="targetPoint" />
            <Array as="points">
              <mxPoint x="1689" y="-310.8987341772152" />
              <mxPoint x="1689" y="204.98734177215192" />
              <mxPoint x="-608" y="216" />
              <mxPoint x="-608" y="-4" />
            </Array>
          </mxGeometry>
        </mxCell>
        <mxCell id="Np-ABr15ij-Jm8Wm-Wb1-189" value="reg_data" style="edgeLabel;align=center;verticalAlign=middle;resizable=0;points=[];labelBackgroundColor=none;fontSize=19;fontStyle=1;container=0;" parent="Np-ABr15ij-Jm8Wm-Wb1-31" vertex="1" connectable="0">
          <mxGeometry x="-0.9558" y="1" relative="1" as="geometry">
            <mxPoint x="-27" y="-24" as="offset" />
          </mxGeometry>
        </mxCell>
        <mxCell id="Np-ABr15ij-Jm8Wm-Wb1-32" value="" style="endArrow=classic;html=1;rounded=0;strokeColor=light-dark(#FFF700,#EDEDED);strokeWidth=5;fontSize=19;fontStyle=1" parent="1" edge="1">
          <mxGeometry width="50" height="50" relative="1" as="geometry">
            <mxPoint x="-651" y="-287" as="sourcePoint" />
            <mxPoint x="-402.699604743083" y="-287.2382391838277" as="targetPoint" />
          </mxGeometry>
        </mxCell>
        <mxCell id="Np-ABr15ij-Jm8Wm-Wb1-156" value="raddr1=instruction [19:15]" style="edgeLabel;align=center;verticalAlign=middle;resizable=0;points=[];labelBackgroundColor=none;fontStyle=1;fontSize=19;container=0;" parent="Np-ABr15ij-Jm8Wm-Wb1-32" vertex="1" connectable="0">
          <mxGeometry x="-0.0706" y="2" relative="1" as="geometry">
            <mxPoint x="5" y="-45" as="offset" />
          </mxGeometry>
        </mxCell>
        <mxCell id="Np-ABr15ij-Jm8Wm-Wb1-30" value="" style="endArrow=classic;html=1;rounded=0;strokeColor=light-dark(#00CC00,#EDEDED);strokeWidth=8;fontSize=19;fontStyle=1" parent="1" edge="1">
          <mxGeometry width="50" height="50" relative="1" as="geometry">
            <mxPoint x="605.798418972332" y="727.1392405063291" as="sourcePoint" />
            <mxPoint x="-402.699604743083" y="-67.57220857736638" as="targetPoint" />
            <Array as="points">
              <mxPoint x="605.798418972332" y="497.3924050632911" />
              <mxPoint x="-631" y="497" />
              <mxPoint x="-631" y="-68" />
            </Array>
          </mxGeometry>
        </mxCell>
        <mxCell id="Np-ABr15ij-Jm8Wm-Wb1-192" value="waddr=instruction_mem [11:7]" style="edgeLabel;align=center;verticalAlign=middle;resizable=0;points=[];labelBackgroundColor=none;fontSize=19;fontStyle=1;container=0;" parent="Np-ABr15ij-Jm8Wm-Wb1-30" vertex="1" connectable="0">
          <mxGeometry x="0.8917" y="6" relative="1" as="geometry">
            <mxPoint x="-16" y="-17" as="offset" />
          </mxGeometry>
        </mxCell>
        <mxCell id="Np-ABr15ij-Jm8Wm-Wb1-33" value="" style="endArrow=classic;html=1;rounded=0;exitX=0.515;exitY=0;exitDx=0;exitDy=0;exitPerimeter=0;strokeColor=#00FF00;strokeWidth=8;fontSize=19;fontStyle=1" parent="1" source="Np-ABr15ij-Jm8Wm-Wb1-97" edge="1">
          <mxGeometry width="50" height="50" relative="1" as="geometry">
            <mxPoint x="-452.501976284585" y="71.31645569620252" as="sourcePoint" />
            <mxPoint x="-402.699604743083" y="71.87757415454382" as="targetPoint" />
            <Array as="points">
              <mxPoint x="941.96442687747" y="136.0632911392405" />
              <mxPoint x="941.96442687747" y="267.6455696202531" />
              <mxPoint x="-588" y="286" />
              <mxPoint x="-588" y="72" />
            </Array>
          </mxGeometry>
        </mxCell>
        <mxCell id="Np-ABr15ij-Jm8Wm-Wb1-186" value="reg_wr_mem" style="edgeLabel;align=center;verticalAlign=middle;resizable=0;points=[];labelBackgroundColor=none;fontSize=19;fontStyle=1;container=0;" parent="Np-ABr15ij-Jm8Wm-Wb1-33" vertex="1" connectable="0">
          <mxGeometry x="-0.9279" y="4" relative="1" as="geometry">
            <mxPoint x="-13" y="-10" as="offset" />
          </mxGeometry>
        </mxCell>
        <mxCell id="Np-ABr15ij-Jm8Wm-Wb1-194" value="reg_wr=reg_wr_mem" style="edgeLabel;align=center;verticalAlign=middle;resizable=0;points=[];labelBackgroundColor=none;fontSize=19;fontStyle=1;container=0;" parent="Np-ABr15ij-Jm8Wm-Wb1-33" vertex="1" connectable="0">
          <mxGeometry x="0.9165" y="1" relative="1" as="geometry">
            <mxPoint y="-15" as="offset" />
          </mxGeometry>
        </mxCell>
        <mxCell id="Np-ABr15ij-Jm8Wm-Wb1-44" value="" style="shape=trapezoid;perimeter=trapezoidPerimeter;whiteSpace=wrap;html=1;fixedSize=1;direction=south;fillColor=#FFFFCC;container=0;fontSize=19;fontStyle=1" parent="1" vertex="1">
          <mxGeometry x="-174.43873517786574" y="-421.59493670886076" width="24.901185770750985" height="167.08860759493672" as="geometry" />
        </mxCell>
        <mxCell id="Np-ABr15ij-Jm8Wm-Wb1-48" value="1" style="text;html=1;align=center;verticalAlign=middle;whiteSpace=wrap;rounded=0;container=0;fontSize=19;fontStyle=1" parent="1" vertex="1">
          <mxGeometry x="-186.88932806324124" y="-400.71582278481014" width="49.80237154150197" height="41.77215189873418" as="geometry" />
        </mxCell>
        <mxCell id="Np-ABr15ij-Jm8Wm-Wb1-47" value="0" style="text;html=1;align=center;verticalAlign=middle;whiteSpace=wrap;rounded=0;container=0;fontSize=19;fontStyle=1" parent="1" vertex="1">
          <mxGeometry x="-186.88932806324124" y="-317.15759493670885" width="49.80237154150197" height="41.77215189873418" as="geometry" />
        </mxCell>
        <mxCell id="Np-ABr15ij-Jm8Wm-Wb1-65" value="" style="shape=trapezoid;perimeter=trapezoidPerimeter;whiteSpace=wrap;html=1;fixedSize=1;direction=south;fillColor=#FFFFCC;container=0;fontSize=19;fontStyle=1" parent="1" vertex="1">
          <mxGeometry x="-174.4387351778655" y="-233.62025316455697" width="24.901185770750985" height="167.08860759493672" as="geometry" />
        </mxCell>
        <mxCell id="Np-ABr15ij-Jm8Wm-Wb1-67" value="" style="endArrow=classic;html=1;rounded=0;strokeColor=#66CC00;strokeWidth=5;fontSize=19;fontStyle=1" parent="1" edge="1">
          <mxGeometry width="50" height="50" relative="1" as="geometry">
            <mxPoint x="-240.84189723320173" y="204.98734177215192" as="sourcePoint" />
            <mxPoint x="-181" y="-108" as="targetPoint" />
            <Array as="points">
              <mxPoint x="-240.84189723320173" y="-108.30379746835445" />
            </Array>
          </mxGeometry>
        </mxCell>
        <mxCell id="Np-ABr15ij-Jm8Wm-Wb1-68" value="0" style="text;html=1;align=center;verticalAlign=middle;whiteSpace=wrap;rounded=0;container=0;fontSize=19;fontStyle=1" parent="1" vertex="1">
          <mxGeometry x="-186.88932806324124" y="-205.77215189873414" width="49.80237154150197" height="41.77215189873418" as="geometry" />
        </mxCell>
        <mxCell id="Np-ABr15ij-Jm8Wm-Wb1-69" value="1" style="text;html=1;align=center;verticalAlign=middle;whiteSpace=wrap;rounded=0;container=0;fontSize=19;fontStyle=1" parent="1" vertex="1">
          <mxGeometry x="-186.88932806324124" y="-136.15189873417728" width="49.80237154150197" height="41.77215189873418" as="geometry" />
        </mxCell>
        <mxCell id="Np-ABr15ij-Jm8Wm-Wb1-70" value="" style="endArrow=classic;html=1;rounded=0;entryX=0.167;entryY=0.444;entryDx=0;entryDy=0;entryPerimeter=0;strokeColor=#FFF700;strokeWidth=5;fontSize=19;fontStyle=1" parent="1" target="Np-ABr15ij-Jm8Wm-Wb1-90" edge="1">
          <mxGeometry width="50" height="50" relative="1" as="geometry">
            <mxPoint x="-149.5375494071145" y="-150.07594936708858" as="sourcePoint" />
            <mxPoint x="-66.53359683794474" y="-150.07594936708858" as="targetPoint" />
          </mxGeometry>
        </mxCell>
        <mxCell id="Np-ABr15ij-Jm8Wm-Wb1-162" value="data_2" style="edgeLabel;html=1;align=center;verticalAlign=middle;resizable=0;points=[];fontStyle=1;fontSize=19;container=0;" parent="Np-ABr15ij-Jm8Wm-Wb1-70" vertex="1" connectable="0">
          <mxGeometry x="-0.2924" y="3" relative="1" as="geometry">
            <mxPoint y="-11" as="offset" />
          </mxGeometry>
        </mxCell>
        <mxCell id="Np-ABr15ij-Jm8Wm-Wb1-72" value="" style="shape=trapezoid;perimeter=trapezoidPerimeter;whiteSpace=wrap;html=1;fixedSize=1;direction=south;fillColor=#FFFFCC;container=0;fontSize=19;fontStyle=1" parent="1" vertex="1">
          <mxGeometry x="74.57312252964402" y="-484.253164556962" width="24.901185770750985" height="187.9746835443038" as="geometry" />
        </mxCell>
        <mxCell id="Np-ABr15ij-Jm8Wm-Wb1-76" value="1" style="text;html=1;align=center;verticalAlign=middle;whiteSpace=wrap;rounded=0;container=0;fontSize=19;fontStyle=1" parent="1" vertex="1">
          <mxGeometry x="62.122529644268525" y="-452.9240506329114" width="49.80237154150197" height="46.99367088607595" as="geometry" />
        </mxCell>
        <mxCell id="Np-ABr15ij-Jm8Wm-Wb1-77" value="" style="endArrow=classic;html=1;rounded=0;strokeColor=#FFF700;strokeWidth=5;fontSize=19;fontStyle=1" parent="1" edge="1">
          <mxGeometry width="50" height="50" relative="1" as="geometry">
            <mxPoint x="99.47430830039502" y="-390.2658227848101" as="sourcePoint" />
            <mxPoint x="257.181818181818" y="-390.2658227848101" as="targetPoint" />
          </mxGeometry>
        </mxCell>
        <mxCell id="Np-ABr15ij-Jm8Wm-Wb1-166" value="rs1" style="edgeLabel;html=1;align=center;verticalAlign=middle;resizable=0;points=[];fontStyle=1;fontSize=19;container=0;" parent="Np-ABr15ij-Jm8Wm-Wb1-77" vertex="1" connectable="0">
          <mxGeometry x="-0.0825" y="1" relative="1" as="geometry">
            <mxPoint x="-2" y="-15" as="offset" />
          </mxGeometry>
        </mxCell>
        <mxCell id="Np-ABr15ij-Jm8Wm-Wb1-75" value="0" style="text;html=1;align=center;verticalAlign=middle;whiteSpace=wrap;rounded=0;container=0;fontSize=19;fontStyle=1" parent="1" vertex="1">
          <mxGeometry x="62.122529644268525" y="-374.6012658227848" width="49.80237154150197" height="46.99367088607595" as="geometry" />
        </mxCell>
        <mxCell id="Np-ABr15ij-Jm8Wm-Wb1-86" value="" style="shape=trapezoid;perimeter=trapezoidPerimeter;whiteSpace=wrap;html=1;fixedSize=1;direction=south;fillColor=#FFFFCC;container=0;fontSize=19;fontStyle=1" parent="1" vertex="1">
          <mxGeometry x="74.57312252964402" y="-212.73417721518985" width="24.901185770750985" height="187.9746835443038" as="geometry" />
        </mxCell>
        <mxCell id="Np-ABr15ij-Jm8Wm-Wb1-89" value="" style="endArrow=classic;html=1;rounded=0;strokeColor=#FFF700;strokeWidth=5;fontSize=19;fontStyle=1" parent="1" edge="1">
          <mxGeometry width="50" height="50" relative="1" as="geometry">
            <mxPoint x="99.47430830039502" y="-118.74683544303798" as="sourcePoint" />
            <mxPoint x="257.181818181818" y="-118.74683544303798" as="targetPoint" />
          </mxGeometry>
        </mxCell>
        <mxCell id="Np-ABr15ij-Jm8Wm-Wb1-167" value="rs2" style="edgeLabel;align=center;verticalAlign=middle;resizable=0;points=[];fontStyle=1;fontSize=19;labelBackgroundColor=none;container=0;" parent="Np-ABr15ij-Jm8Wm-Wb1-89" vertex="1" connectable="0">
          <mxGeometry x="-0.0825" y="1" relative="1" as="geometry">
            <mxPoint x="-2" y="-9" as="offset" />
          </mxGeometry>
        </mxCell>
        <mxCell id="Np-ABr15ij-Jm8Wm-Wb1-90" value="0" style="text;html=1;align=center;verticalAlign=middle;whiteSpace=wrap;rounded=0;container=0;fontSize=19;fontStyle=1" parent="1" vertex="1">
          <mxGeometry x="62.122529644268525" y="-170.96202531645565" width="49.80237154150197" height="46.99367088607595" as="geometry" />
        </mxCell>
        <mxCell id="Np-ABr15ij-Jm8Wm-Wb1-88" value="1" style="text;html=1;align=center;verticalAlign=middle;whiteSpace=wrap;rounded=0;container=0;fontSize=19;fontStyle=1" parent="1" vertex="1">
          <mxGeometry x="62.122529644268525" y="-108.30379746835445" width="49.80237154150197" height="46.99367088607595" as="geometry" />
        </mxCell>
        <mxCell id="Np-ABr15ij-Jm8Wm-Wb1-97" value="" style="rounded=0;direction=south;fontColor=default;fillColor=#00FF00;html=1;fillStyle=dots;container=0;fontSize=19;fontStyle=1" parent="1" vertex="1">
          <mxGeometry x="705.403162055336" y="-714" width="74.70355731225295" height="1649.9999999999998" as="geometry" />
        </mxCell>
        <mxCell id="Np-ABr15ij-Jm8Wm-Wb1-98" value="" style="endArrow=classic;html=1;rounded=0;strokeColor=#FFF700;strokeWidth=5;fontSize=19;fontStyle=1" parent="1" edge="1">
          <mxGeometry width="50" height="50" relative="1" as="geometry">
            <mxPoint x="406.588932806324" y="-254.50632911392404" as="sourcePoint" />
            <mxPoint x="705.403162055336" y="-254.5063291139241" as="targetPoint" />
          </mxGeometry>
        </mxCell>
        <mxCell id="Np-ABr15ij-Jm8Wm-Wb1-168" value="result" style="edgeLabel;align=center;verticalAlign=middle;resizable=0;points=[];fontStyle=1;fontSize=19;labelBackgroundColor=none;container=0;" parent="Np-ABr15ij-Jm8Wm-Wb1-98" vertex="1" connectable="0">
          <mxGeometry x="-0.2342" relative="1" as="geometry">
            <mxPoint x="-32" y="-21" as="offset" />
          </mxGeometry>
        </mxCell>
        <mxCell id="Np-ABr15ij-Jm8Wm-Wb1-99" value="" style="triangle;whiteSpace=wrap;html=1;fillColor=none;container=0;fontSize=19;fontStyle=1" parent="1" vertex="1">
          <mxGeometry x="705.403162055336" y="810.6835443037976" width="37.35177865612648" height="125.31645569620254" as="geometry" />
        </mxCell>
        <mxCell id="Np-ABr15ij-Jm8Wm-Wb1-106" value="memory" style="rounded=0;whiteSpace=wrap;html=1;direction=south;fillColor=#CCFFCC;container=0;fontSize=19;fontStyle=1" parent="1" vertex="1">
          <mxGeometry x="1271" y="-405.93" width="74.7" height="297" as="geometry" />
        </mxCell>
        <mxCell id="Np-ABr15ij-Jm8Wm-Wb1-108" value="" style="triangle;whiteSpace=wrap;html=1;fillColor=none;container=0;fontSize=19;fontStyle=1" parent="1" vertex="1">
          <mxGeometry x="1275.0015415019761" y="-176.65531645569627" width="24.901185770750985" height="68.35443037974683" as="geometry" />
        </mxCell>
        <mxCell id="Np-ABr15ij-Jm8Wm-Wb1-118" value="" style="endArrow=classic;html=1;rounded=0;exitX=0.382;exitY=-0.025;exitDx=0;exitDy=0;exitPerimeter=0;strokeColor=#00FF00;strokeWidth=5;fontSize=19;fontStyle=1;jumpStyle=arc;jumpSize=11;" parent="1" source="Np-ABr15ij-Jm8Wm-Wb1-97" edge="1">
          <mxGeometry width="50" height="50" relative="1" as="geometry">
            <mxPoint x="817.458498023715" y="-254.50632911392404" as="sourcePoint" />
            <mxPoint x="1536" y="-442" as="targetPoint" />
            <Array as="points">
              <mxPoint x="988" y="-84" />
              <mxPoint x="982" y="-438" />
            </Array>
          </mxGeometry>
        </mxCell>
        <mxCell id="Np-ABr15ij-Jm8Wm-Wb1-181" value="alu_mem" style="edgeLabel;align=center;verticalAlign=middle;resizable=0;points=[];labelBackgroundColor=none;fontStyle=1;fontSize=19;container=0;" parent="Np-ABr15ij-Jm8Wm-Wb1-118" vertex="1" connectable="0">
          <mxGeometry x="-0.8845" y="-1" relative="1" as="geometry">
            <mxPoint x="22" y="-18" as="offset" />
          </mxGeometry>
        </mxCell>
        <mxCell id="Np-ABr15ij-Jm8Wm-Wb1-124" value="" style="endArrow=classic;html=1;rounded=0;strokeColor=#00FF00;strokeWidth=5;fontSize=19;fontStyle=1;entryX=0.438;entryY=0.976;entryDx=0;entryDy=0;entryPerimeter=0;" parent="1" edge="1" target="Np-ABr15ij-Jm8Wm-Wb1-117">
          <mxGeometry width="50" height="50" relative="1" as="geometry">
            <mxPoint x="1091.371541501976" y="-567.7974683544304" as="sourcePoint" />
            <mxPoint x="1496.905138339921" y="-327.60759493670884" as="targetPoint" />
            <Array as="points">
              <mxPoint x="1452" y="-562" />
              <mxPoint x="1452" y="-328" />
            </Array>
          </mxGeometry>
        </mxCell>
        <mxCell id="Np-ABr15ij-Jm8Wm-Wb1-187" value="pc_next_mem" style="edgeLabel;html=1;align=center;verticalAlign=middle;resizable=0;points=[];fontStyle=1;fontSize=19;container=0;" parent="Np-ABr15ij-Jm8Wm-Wb1-124" vertex="1" connectable="0">
          <mxGeometry x="-0.7635" y="5" relative="1" as="geometry">
            <mxPoint x="-1" y="-13" as="offset" />
          </mxGeometry>
        </mxCell>
        <mxCell id="Np-ABr15ij-Jm8Wm-Wb1-170" value="ALU" style="text;align=center;verticalAlign=middle;resizable=0;points=[];autosize=1;strokeColor=none;fillColor=none;fontSize=19;fontStyle=1;fontFamily=Times New Roman;container=0;" parent="1" vertex="1">
          <mxGeometry x="331" y="-266.62" width="57" height="35" as="geometry" />
        </mxCell>
        <mxCell id="Np-ABr15ij-Jm8Wm-Wb1-146" value="" style="endArrow=classic;html=1;rounded=0;strokeColor=#9999FF;strokeWidth=5;fontSize=19;fontStyle=1" parent="1" edge="1">
          <mxGeometry width="50" height="50" relative="1" as="geometry">
            <mxPoint x="344.1052631578948" y="-54" as="sourcePoint" />
            <mxPoint x="342" y="-134" as="targetPoint" />
          </mxGeometry>
        </mxCell>
        <mxCell id="Np-ABr15ij-Jm8Wm-Wb1-169" value="alu_op" style="edgeLabel;html=1;align=center;verticalAlign=middle;resizable=0;points=[];fontSize=19;fontStyle=1;container=0;" parent="Np-ABr15ij-Jm8Wm-Wb1-146" vertex="1" connectable="0">
          <mxGeometry x="-0.5022" y="-3" relative="1" as="geometry">
            <mxPoint x="5" y="30" as="offset" />
          </mxGeometry>
        </mxCell>
        <mxCell id="Np-ABr15ij-Jm8Wm-Wb1-143" value="" style="endArrow=classic;html=1;rounded=0;strokeColor=#3333FF;strokeWidth=5;fontSize=19;fontStyle=1" parent="1" edge="1">
          <mxGeometry width="50" height="50" relative="1" as="geometry">
            <mxPoint x="-162.70000000000005" y="-10.649999999999977" as="sourcePoint" />
            <mxPoint x="-162.70000000000005" y="-80.64999999999998" as="targetPoint" />
            <Array as="points" />
          </mxGeometry>
        </mxCell>
        <mxCell id="Np-ABr15ij-Jm8Wm-Wb1-160" value="forward_sel_B" style="edgeLabel;align=center;verticalAlign=middle;resizable=0;points=[];labelBackgroundColor=none;fontStyle=1;fontSize=19;container=0;" parent="Np-ABr15ij-Jm8Wm-Wb1-143" vertex="1" connectable="0">
          <mxGeometry x="-0.2118" y="1" relative="1" as="geometry">
            <mxPoint x="-9" y="37" as="offset" />
          </mxGeometry>
        </mxCell>
        <mxCell id="Np-ABr15ij-Jm8Wm-Wb1-142" value="" style="endArrow=classic;html=1;rounded=0;entryX=1;entryY=0.5;entryDx=0;entryDy=0;strokeColor=#CC00CC;strokeWidth=5;fontSize=19;fontStyle=1" parent="1" edge="1">
          <mxGeometry width="50" height="50" relative="1" as="geometry">
            <mxPoint x="-162.19000000000005" y="-233.62" as="sourcePoint" />
            <mxPoint x="-162.17814229249007" y="-264.12632911392404" as="targetPoint" />
            <Array as="points">
              <mxPoint x="-162.19000000000005" y="-233.62" />
            </Array>
          </mxGeometry>
        </mxCell>
        <mxCell id="Np-ABr15ij-Jm8Wm-Wb1-159" value="forward_sel_A" style="edgeLabel;align=center;verticalAlign=middle;resizable=0;points=[];fontSize=19;fontStyle=1;labelBackgroundColor=none;container=0;" parent="Np-ABr15ij-Jm8Wm-Wb1-142" vertex="1" connectable="0">
          <mxGeometry x="-0.02" y="-3" relative="1" as="geometry">
            <mxPoint x="71" y="5" as="offset" />
          </mxGeometry>
        </mxCell>
        <mxCell id="Np-ABr15ij-Jm8Wm-Wb1-196" value="" style="endArrow=classic;html=1;rounded=0;strokeColor=#CC00CC;strokeWidth=5;fontSize=19;fontStyle=1" parent="1" edge="1">
          <mxGeometry width="50" height="50" relative="1" as="geometry">
            <mxPoint x="-186.8900000000001" y="601.8200000000002" as="sourcePoint" />
            <mxPoint x="-187" y="566" as="targetPoint" />
            <Array as="points">
              <mxPoint x="-186.8900000000001" y="601.8200000000002" />
            </Array>
          </mxGeometry>
        </mxCell>
        <mxCell id="Np-ABr15ij-Jm8Wm-Wb1-197" value="forward_sel_A" style="edgeLabel;align=center;verticalAlign=middle;resizable=0;points=[];fontSize=19;fontStyle=1;labelBackgroundColor=none;rotation=270;container=0;" parent="Np-ABr15ij-Jm8Wm-Wb1-196" vertex="1" connectable="0">
          <mxGeometry x="-0.02" y="-3" relative="1" as="geometry">
            <mxPoint x="-24" y="-38" as="offset" />
          </mxGeometry>
        </mxCell>
        <mxCell id="Np-ABr15ij-Jm8Wm-Wb1-198" value="" style="endArrow=classic;html=1;rounded=0;strokeColor=#3333FF;strokeWidth=5;fontSize=19;fontStyle=1" parent="1" edge="1">
          <mxGeometry width="50" height="50" relative="1" as="geometry">
            <mxPoint x="-258" y="601.8200000000002" as="sourcePoint" />
            <mxPoint x="-258" y="566" as="targetPoint" />
            <Array as="points" />
          </mxGeometry>
        </mxCell>
        <mxCell id="Np-ABr15ij-Jm8Wm-Wb1-199" value="forward_sel_B" style="edgeLabel;align=center;verticalAlign=middle;resizable=0;points=[];labelBackgroundColor=none;fontStyle=1;fontSize=19;rotation=270;container=0;" parent="Np-ABr15ij-Jm8Wm-Wb1-198" vertex="1" connectable="0">
          <mxGeometry x="-0.2118" y="1" relative="1" as="geometry">
            <mxPoint x="-19" y="-41" as="offset" />
          </mxGeometry>
        </mxCell>
        <mxCell id="Np-ABr15ij-Jm8Wm-Wb1-200" value="" style="endArrow=classic;html=1;rounded=0;strokeColor=#00FFFF;strokeWidth=5;fontSize=19;fontStyle=1" parent="1" edge="1">
          <mxGeometry width="50" height="50" relative="1" as="geometry">
            <mxPoint x="86.3599999999999" y="601.8200000000002" as="sourcePoint" />
            <mxPoint x="86" y="556" as="targetPoint" />
          </mxGeometry>
        </mxCell>
        <mxCell id="Np-ABr15ij-Jm8Wm-Wb1-201" value="sel_A" style="edgeLabel;align=center;verticalAlign=middle;resizable=0;points=[];labelBackgroundColor=none;fontSize=19;fontStyle=1;rotation=270;container=0;" parent="Np-ABr15ij-Jm8Wm-Wb1-200" vertex="1" connectable="0">
          <mxGeometry x="0.0697" y="-6" relative="1" as="geometry">
            <mxPoint x="-30" y="-2" as="offset" />
          </mxGeometry>
        </mxCell>
        <mxCell id="Np-ABr15ij-Jm8Wm-Wb1-202" value="" style="endArrow=classic;html=1;rounded=0;entryX=1;entryY=0.5;entryDx=0;entryDy=0;strokeColor=#330066;strokeWidth=5;fontSize=19;fontStyle=1" parent="1" edge="1">
          <mxGeometry width="50" height="50" relative="1" as="geometry">
            <mxPoint x="162" y="601.8200000000002" as="sourcePoint" />
            <mxPoint x="162" y="550.8200000000002" as="targetPoint" />
          </mxGeometry>
        </mxCell>
        <mxCell id="Np-ABr15ij-Jm8Wm-Wb1-203" value="sel_B" style="edgeLabel;align=center;verticalAlign=middle;resizable=0;points=[];fontSize=19;fontStyle=1;labelBackgroundColor=none;rotation=270;container=0;" parent="Np-ABr15ij-Jm8Wm-Wb1-202" vertex="1" connectable="0">
          <mxGeometry x="-0.1548" y="-1" relative="1" as="geometry">
            <mxPoint x="-24" y="-4" as="offset" />
          </mxGeometry>
        </mxCell>
        <mxCell id="Np-ABr15ij-Jm8Wm-Wb1-204" value="" style="endArrow=classic;html=1;rounded=0;strokeColor=#FF8000;strokeWidth=5;fontSize=19;fontStyle=1" parent="1" edge="1">
          <mxGeometry width="50" height="50" relative="1" as="geometry">
            <mxPoint x="241.99885375494046" y="601.8277215189873" as="sourcePoint" />
            <mxPoint x="244" y="556" as="targetPoint" />
          </mxGeometry>
        </mxCell>
        <mxCell id="Np-ABr15ij-Jm8Wm-Wb1-205" value="br_type" style="edgeLabel;align=center;verticalAlign=middle;resizable=0;points=[];fontStyle=1;fontSize=19;labelBackgroundColor=none;rotation=270;container=0;" parent="Np-ABr15ij-Jm8Wm-Wb1-204" vertex="1" connectable="0">
          <mxGeometry x="-0.0416" relative="1" as="geometry">
            <mxPoint x="-21" y="-15" as="offset" />
          </mxGeometry>
        </mxCell>
        <mxCell id="Np-ABr15ij-Jm8Wm-Wb1-206" value="" style="endArrow=classic;html=1;rounded=0;strokeColor=#9999FF;strokeWidth=5;fontSize=19;fontStyle=1" parent="1" edge="1">
          <mxGeometry width="50" height="50" relative="1" as="geometry">
            <mxPoint x="314.1052631578948" y="601.8200000000002" as="sourcePoint" />
            <mxPoint x="312" y="556" as="targetPoint" />
          </mxGeometry>
        </mxCell>
        <mxCell id="Np-ABr15ij-Jm8Wm-Wb1-207" value="alu_op" style="edgeLabel;html=1;align=center;verticalAlign=middle;resizable=0;points=[];fontSize=19;fontStyle=1;rotation=270;container=0;" parent="Np-ABr15ij-Jm8Wm-Wb1-206" vertex="1" connectable="0">
          <mxGeometry x="-0.5022" y="-3" relative="1" as="geometry">
            <mxPoint x="-28" y="-24" as="offset" />
          </mxGeometry>
        </mxCell>
        <mxCell id="Np-ABr15ij-Jm8Wm-Wb1-208" value="" style="endArrow=classic;html=1;rounded=0;exitX=0;exitY=0.75;exitDx=0;exitDy=0;fontColor=#CCCC00;fontSize=19;strokeColor=#CCCC00;strokeWidth=15;fontStyle=1;entryX=0.904;entryY=1;entryDx=0;entryDy=0;entryPerimeter=0;" parent="1" target="Np-ABr15ij-Jm8Wm-Wb1-22" edge="1">
          <mxGeometry width="50" height="50" relative="1" as="geometry">
            <mxPoint x="-402.6996047430832" y="775.9974683544312" as="sourcePoint" />
            <mxPoint x="-931" y="776" as="targetPoint" />
            <Array as="points">
              <mxPoint x="-588" y="776.2" />
              <mxPoint x="-588" y="1012.2" />
              <mxPoint x="-1106" y="1007" />
              <mxPoint x="-1104" y="776" />
            </Array>
          </mxGeometry>
        </mxCell>
        <mxCell id="Np-ABr15ij-Jm8Wm-Wb1-209" value="stall" style="edgeLabel;html=1;align=center;verticalAlign=middle;resizable=0;points=[];fontSize=19;fontColor=none;noLabel=1;rotation=90;fontStyle=1;container=0;" parent="Np-ABr15ij-Jm8Wm-Wb1-208" vertex="1" connectable="0">
          <mxGeometry x="-0.8459" y="-4" relative="1" as="geometry">
            <mxPoint x="1" as="offset" />
          </mxGeometry>
        </mxCell>
        <mxCell id="Np-ABr15ij-Jm8Wm-Wb1-210" value="stall" style="edgeLabel;align=center;verticalAlign=middle;resizable=0;points=[];fontStyle=1;fontSize=19;labelBackgroundColor=none;container=0;" parent="Np-ABr15ij-Jm8Wm-Wb1-208" vertex="1" connectable="0">
          <mxGeometry x="-0.8793" y="-2" relative="1" as="geometry">
            <mxPoint y="-18" as="offset" />
          </mxGeometry>
        </mxCell>
        <mxCell id="RnqCKuSm8W6_e2I5_OoQ-2" value="&lt;font&gt;LSU&lt;/font&gt;" style="rounded=0;whiteSpace=wrap;html=1;fontStyle=1;fontSize=19;fillColor=#CCFFCC;" vertex="1" parent="1">
          <mxGeometry x="1052" y="-72" width="86" height="262" as="geometry" />
        </mxCell>
        <mxCell id="RnqCKuSm8W6_e2I5_OoQ-3" value="" style="endArrow=classic;html=1;rounded=0;strokeColor=#00FF00;strokeWidth=5;fontSize=19;fontStyle=1" edge="1" parent="1">
          <mxGeometry width="50" height="50" relative="1" as="geometry">
            <mxPoint x="990" y="-88" as="sourcePoint" />
            <mxPoint x="1052" y="-47" as="targetPoint" />
            <Array as="points">
              <mxPoint x="990" y="-47" />
            </Array>
          </mxGeometry>
        </mxCell>
        <mxCell id="RnqCKuSm8W6_e2I5_OoQ-4" value="" style="endArrow=classic;html=1;rounded=0;strokeColor=#00FF00;strokeWidth=5;fontSize=19;fontStyle=1;exitX=1.023;exitY=0.076;exitDx=0;exitDy=0;entryX=0.451;entryY=0.96;entryDx=0;entryDy=0;entryPerimeter=0;startArrow=none;startFill=0;jumpStyle=arc;jumpSize=13;exitPerimeter=0;" edge="1" parent="1" source="RnqCKuSm8W6_e2I5_OoQ-2" target="Np-ABr15ij-Jm8Wm-Wb1-106">
          <mxGeometry width="50" height="50" relative="1" as="geometry">
            <mxPoint x="969" y="-297" as="sourcePoint" />
            <mxPoint x="1111.371541501976" y="-297.1645569620253" as="targetPoint" />
            <Array as="points">
              <mxPoint x="1164" y="-52" />
              <mxPoint x="1158" y="-272" />
            </Array>
          </mxGeometry>
        </mxCell>
        <mxCell id="RnqCKuSm8W6_e2I5_OoQ-5" value="mem_wr_en" style="edgeLabel;align=center;verticalAlign=middle;resizable=0;points=[];fontSize=19;labelBackgroundColor=none;fontStyle=1" vertex="1" connectable="0" parent="RnqCKuSm8W6_e2I5_OoQ-4">
          <mxGeometry x="0.7066" y="2" relative="1" as="geometry">
            <mxPoint x="-16" y="-20" as="offset" />
          </mxGeometry>
        </mxCell>
        <mxCell id="RnqCKuSm8W6_e2I5_OoQ-6" value="&lt;font&gt;UART&lt;/font&gt;" style="rounded=0;whiteSpace=wrap;html=1;fontStyle=1;fontSize=19;fillColor=#CCFFCC;strokeColor=#00331A;gradientColor=#CCFFCC;" vertex="1" parent="1">
          <mxGeometry x="1262" y="-64" width="90" height="246" as="geometry" />
        </mxCell>
        <mxCell id="RnqCKuSm8W6_e2I5_OoQ-7" value="" style="triangle;whiteSpace=wrap;html=1;fillColor=none;container=0;fontSize=19;fontStyle=1" vertex="1" parent="1">
          <mxGeometry x="1263.0015415019761" y="113.64468354430369" width="24.901185770750985" height="68.35443037974683" as="geometry" />
        </mxCell>
        <mxCell id="RnqCKuSm8W6_e2I5_OoQ-8" value="" style="endArrow=classic;html=1;rounded=0;strokeColor=#00FF00;strokeWidth=5;fontSize=19;fontStyle=1;" edge="1" parent="1">
          <mxGeometry width="50" height="50" relative="1" as="geometry">
            <mxPoint x="1141" y="100" as="sourcePoint" />
            <mxPoint x="1263" y="100" as="targetPoint" />
          </mxGeometry>
        </mxCell>
        <mxCell id="RnqCKuSm8W6_e2I5_OoQ-9" value="uart_sel" style="edgeLabel;align=center;verticalAlign=middle;resizable=0;points=[];fontSize=19;labelBackgroundColor=none;fontStyle=1" vertex="1" connectable="0" parent="RnqCKuSm8W6_e2I5_OoQ-8">
          <mxGeometry x="0.2951" relative="1" as="geometry">
            <mxPoint x="-47" y="-18" as="offset" />
          </mxGeometry>
        </mxCell>
        <mxCell id="RnqCKuSm8W6_e2I5_OoQ-10" value="" style="endArrow=classic;html=1;rounded=0;strokeColor=#00FF00;strokeWidth=5;fontSize=19;fontStyle=1;" edge="1" parent="1">
          <mxGeometry width="50" height="50" relative="1" as="geometry">
            <mxPoint x="1136" y="51" as="sourcePoint" />
            <mxPoint x="1260" y="50" as="targetPoint" />
          </mxGeometry>
        </mxCell>
        <mxCell id="RnqCKuSm8W6_e2I5_OoQ-11" value="uart_addr" style="edgeLabel;align=center;verticalAlign=middle;resizable=0;points=[];labelBackgroundColor=none;fontSize=19;fontStyle=1" vertex="1" connectable="0" parent="RnqCKuSm8W6_e2I5_OoQ-10">
          <mxGeometry x="-0.2895" y="7" relative="1" as="geometry">
            <mxPoint x="2" y="-12" as="offset" />
          </mxGeometry>
        </mxCell>
        <mxCell id="RnqCKuSm8W6_e2I5_OoQ-12" value="" style="endArrow=classic;html=1;rounded=0;strokeColor=#00FF00;strokeWidth=5;fontSize=19;fontStyle=1;" edge="1" parent="1">
          <mxGeometry width="50" height="50" relative="1" as="geometry">
            <mxPoint x="1138" y="1" as="sourcePoint" />
            <mxPoint x="1260" as="targetPoint" />
          </mxGeometry>
        </mxCell>
        <mxCell id="RnqCKuSm8W6_e2I5_OoQ-13" value="uart_wr_en" style="edgeLabel;align=center;verticalAlign=middle;resizable=0;points=[];labelBackgroundColor=none;fontSize=19;fontStyle=1" vertex="1" connectable="0" parent="RnqCKuSm8W6_e2I5_OoQ-12">
          <mxGeometry x="-0.2461" y="-1" relative="1" as="geometry">
            <mxPoint x="6" y="-20" as="offset" />
          </mxGeometry>
        </mxCell>
        <mxCell id="RnqCKuSm8W6_e2I5_OoQ-14" value="" style="endArrow=classic;html=1;rounded=0;strokeColor=#00FF00;strokeWidth=5;fontSize=19;fontStyle=1;entryX=0.016;entryY=0.106;entryDx=0;entryDy=0;entryPerimeter=0;startArrow=oval;startFill=1;" edge="1" parent="1" target="RnqCKuSm8W6_e2I5_OoQ-6">
          <mxGeometry width="50" height="50" relative="1" as="geometry">
            <mxPoint x="1200" y="-184" as="sourcePoint" />
            <mxPoint x="1316" y="-278" as="targetPoint" />
            <Array as="points">
              <mxPoint x="1204" y="-38" />
            </Array>
          </mxGeometry>
        </mxCell>
        <mxCell id="RnqCKuSm8W6_e2I5_OoQ-15" value="" style="endArrow=classic;html=1;rounded=0;strokeColor=#00FF00;strokeWidth=5;fontSize=19;fontStyle=1;exitX=1;exitY=0.25;exitDx=0;exitDy=0;" edge="1" parent="1" source="RnqCKuSm8W6_e2I5_OoQ-6">
          <mxGeometry width="50" height="50" relative="1" as="geometry">
            <mxPoint x="1392" y="49" as="sourcePoint" />
            <mxPoint x="1428" y="-78" as="targetPoint" />
            <Array as="points">
              <mxPoint x="1380" y="-2" />
              <mxPoint x="1380" y="-78" />
            </Array>
          </mxGeometry>
        </mxCell>
        <mxCell id="RnqCKuSm8W6_e2I5_OoQ-26" value="uart_data" style="edgeLabel;align=center;verticalAlign=middle;resizable=0;points=[];fontStyle=1;labelBackgroundColor=none;fontSize=19;" vertex="1" connectable="0" parent="RnqCKuSm8W6_e2I5_OoQ-15">
          <mxGeometry x="0.4737" relative="1" as="geometry">
            <mxPoint x="-16" y="-22" as="offset" />
          </mxGeometry>
        </mxCell>
        <mxCell id="RnqCKuSm8W6_e2I5_OoQ-27" value="" style="endArrow=classic;html=1;rounded=0;strokeColor=#00FF00;strokeWidth=5;fontSize=19;fontStyle=1;entryX=1;entryY=0.25;entryDx=0;entryDy=0;startArrow=oval;startFill=1;jumpStyle=arc;jumpSize=15;" edge="1" parent="1" target="RnqCKuSm8W6_e2I5_OoQ-19">
          <mxGeometry width="50" height="50" relative="1" as="geometry">
            <mxPoint x="1196" y="100" as="sourcePoint" />
            <mxPoint x="1474" y="256" as="targetPoint" />
            <Array as="points">
              <mxPoint x="1200" y="244" />
              <mxPoint x="1443" y="244" />
            </Array>
          </mxGeometry>
        </mxCell>
        <mxCell id="RnqCKuSm8W6_e2I5_OoQ-19" value="" style="shape=trapezoid;perimeter=trapezoidPerimeter;whiteSpace=wrap;html=1;fixedSize=1;direction=south;fillColor=#CCFFCC;" vertex="1" parent="1">
          <mxGeometry x="1423.75" y="-213" width="27.75" height="182" as="geometry" />
        </mxCell>
        <mxCell id="RnqCKuSm8W6_e2I5_OoQ-22" value="0" style="text;html=1;align=center;verticalAlign=middle;whiteSpace=wrap;rounded=0;" vertex="1" parent="1">
          <mxGeometry x="1409.875" y="-182.66666666666666" width="55.5" height="45.5" as="geometry" />
        </mxCell>
        <mxCell id="RnqCKuSm8W6_e2I5_OoQ-23" value="1" style="text;html=1;align=center;verticalAlign=middle;whiteSpace=wrap;rounded=0;" vertex="1" parent="1">
          <mxGeometry x="1409.875" y="-106.83333333333333" width="55.5" height="45.5" as="geometry" />
        </mxCell>
        <mxCell id="Np-ABr15ij-Jm8Wm-Wb1-117" value="" style="shape=trapezoid;perimeter=trapezoidPerimeter;whiteSpace=wrap;html=1;fixedSize=1;direction=south;fillColor=#CCFFCC;container=0;fontSize=19;fontStyle=1" parent="1" vertex="1">
          <mxGeometry x="1540.6698023715412" y="-523.9953164556962" width="55.14367588932806" height="438.6075949367089" as="geometry" />
        </mxCell>
        <mxCell id="Np-ABr15ij-Jm8Wm-Wb1-120" value="0" style="text;html=1;align=center;verticalAlign=middle;whiteSpace=wrap;rounded=0;container=0;fontSize=19;fontStyle=1" parent="1" vertex="1">
          <mxGeometry x="1517.9972727272725" y="-482.22316455696205" width="90.71146245059286" height="62.65822784810127" as="geometry" />
        </mxCell>
        <mxCell id="Np-ABr15ij-Jm8Wm-Wb1-121" value="1" style="text;html=1;align=center;verticalAlign=middle;whiteSpace=wrap;rounded=0;container=0;fontSize=19;fontStyle=1" parent="1" vertex="1">
          <mxGeometry x="1547.9972727272725" y="-356.90531645569615" width="43" height="62.66" as="geometry" />
        </mxCell>
        <mxCell id="Np-ABr15ij-Jm8Wm-Wb1-123" value="2" style="text;html=1;align=center;verticalAlign=middle;whiteSpace=wrap;rounded=0;container=0;fontSize=19;fontStyle=1" parent="1" vertex="1">
          <mxGeometry x="1517.9972727272725" y="-242.03329113924053" width="90.71146245059286" height="62.65822784810127" as="geometry" />
        </mxCell>
        <mxCell id="RnqCKuSm8W6_e2I5_OoQ-25" value="" style="endArrow=classic;html=1;rounded=0;strokeColor=#00FF00;strokeWidth=5;fontSize=19;fontStyle=1;" edge="1" parent="1">
          <mxGeometry width="50" height="50" relative="1" as="geometry">
            <mxPoint x="1452" y="-117" as="sourcePoint" />
            <mxPoint x="1538" y="-212" as="targetPoint" />
            <Array as="points">
              <mxPoint x="1484" y="-117" />
              <mxPoint x="1484" y="-212" />
            </Array>
          </mxGeometry>
        </mxCell>
        <mxCell id="RnqCKuSm8W6_e2I5_OoQ-29" value="data" style="edgeLabel;align=center;verticalAlign=middle;resizable=0;points=[];fontSize=19;labelBackgroundColor=none;fontStyle=1" vertex="1" connectable="0" parent="RnqCKuSm8W6_e2I5_OoQ-25">
          <mxGeometry x="0.6022" relative="1" as="geometry">
            <mxPoint x="-1" y="-20" as="offset" />
          </mxGeometry>
        </mxCell>
        <mxCell id="RnqCKuSm8W6_e2I5_OoQ-31" value="" style="endArrow=classic;html=1;rounded=0;strokeColor=#00FF00;strokeWidth=5;fontSize=19;fontStyle=1;" edge="1" parent="1">
          <mxGeometry width="50" height="50" relative="1" as="geometry">
            <mxPoint x="1354" y="47" as="sourcePoint" />
            <mxPoint x="2346" y="40" as="targetPoint" />
          </mxGeometry>
        </mxCell>
        <mxCell id="RnqCKuSm8W6_e2I5_OoQ-32" value="tx_bit" style="edgeLabel;align=center;verticalAlign=middle;resizable=0;points=[];fontSize=31;fontStyle=1;labelBackgroundColor=none;" vertex="1" connectable="0" parent="RnqCKuSm8W6_e2I5_OoQ-31">
          <mxGeometry x="0.484" y="8" relative="1" as="geometry">
            <mxPoint x="-14" y="-16" as="offset" />
          </mxGeometry>
        </mxCell>
        <mxCell id="RnqCKuSm8W6_e2I5_OoQ-33" value="" style="endArrow=classic;html=1;rounded=0;strokeColor=#00FF00;strokeWidth=5;fontSize=19;fontStyle=1;entryX=1;entryY=0.675;entryDx=0;entryDy=0;entryPerimeter=0;" edge="1" parent="1" target="RnqCKuSm8W6_e2I5_OoQ-6">
          <mxGeometry width="50" height="50" relative="1" as="geometry">
            <mxPoint x="2352" y="94" as="sourcePoint" />
            <mxPoint x="1412" y="166" as="targetPoint" />
          </mxGeometry>
        </mxCell>
        <mxCell id="RnqCKuSm8W6_e2I5_OoQ-34" value="rx_bit" style="edgeLabel;align=center;verticalAlign=middle;resizable=0;points=[];fontSize=31;fontStyle=1;labelBackgroundColor=none;" vertex="1" connectable="0" parent="RnqCKuSm8W6_e2I5_OoQ-33">
          <mxGeometry x="0.484" y="8" relative="1" as="geometry">
            <mxPoint x="468" y="-32" as="offset" />
          </mxGeometry>
        </mxCell>
      </root>
    </mxGraphModel>
  </diagram>
</mxfile>
